#!OML:ASF H:\Punching\Project 1\Capture day 1\Session 1\female.ASF
:FULLY-SPECIFIED
:DEGREES
785
root 0.289266 13.4893 0.90054 17.5881 17.2301 3.18166
lowerback 10.6206 6.26234 5.23788
upperback -3.67036 9.05476 -1.25993
thorax -8.84588 4.05911 -5.82192
lowerneck -8.59297 -6.71773 2.41727
upperneck 21.758 -9.93009 1.68787
head 8.12233 -4.26477 -0.762564
rclavicle -1.31794e-013 -4.29375e-014
rhumerus 48.3111 4.59968 -72.9792
rradius 46.0684
rwrist -21.9069
rhand -20.2684 -25.8839
rfingers 7.12502
rthumb 6.08067 -55.7766
lclavicle -1.31794e-013 -4.29375e-014
lhumerus 22.5517 -44.5194 80.0976
lradius 134.14
lwrist 12.5663
lhand -23.1074 8.58023
lfingers 7.12502
lthumb 3.33938 38.5338
rfemur -9.45464 -28.6773 3.28555
rtibia 58.065
rfoot -32.3114 -22.5551
rtoes -26.2738
lfemur -68.5752 -6.96982 -17.3479
ltibia 58.9138
lfoot -6.59181 -8.4895
ltoes 0.545307
786
root 0.288265 13.4766 0.890599 17.6084 17.3763 3.27075
lowerback 10.9447 6.46487 5.40736
upperback -3.73408 9.35715 -1.43687
thorax -9.01003 4.17912 -6.19642
lowerneck -8.61812 -6.97391 2.49207
upperneck 21.6886 -10.3441 1.93244
head 8.11433 -4.43043 -0.732628
rclavicle 9.40251e-014 -6.36111e-015
rhumerus 50.3727 2.13663 -75.491
rradius 39.0734
rwrist -16.7667
rhand -19.7965 -25.1023
rfingers 7.12502
rthumb 6.53629 -54.9815
lclavicle 9.40251e-014 -6.36111e-015
lhumerus 23.0724 -44.6725 79.5653
lradius 133.986
lwrist 12.0788
lhand -22.9203 8.76746
lfingers 7.12502
lthumb 3.52006 38.7181
rfemur -9.84095 -28.7857 3.14626
rtibia 58.9142
rfoot -32.1396 -22.4336
rtoes -25.8821
lfemur -68.6831 -7.03585 -17.4843
ltibia 58.971
lfoot -6.54799 -8.5695
ltoes 0.585013
787
root 0.288151 13.4663 0.882198 17.6482 17.4485 3.33698
lowerback 11.2643 6.61918 5.50679
upperback -3.81462 9.58712 -1.59902
thorax -9.2102 4.265 -6.5112
lowerneck -8.67577 -7.15632 2.61613
upperneck 21.6221 -10.6644 2.16472
head 8.11073 -4.54911 -0.707477
rclavicle 1.34975e-013 -4.13472e-014
rhumerus 51.8888 -0.359836 -78.3897
rradius 33.9426
rwrist -11.7383
rhand -19.4456 -23.8022
rfingers 7.12502
rthumb 6.87498 -53.6705
lclavicle 1.34975e-013 -4.13472e-014
lhumerus 23.5322 -44.7812 79.1214
lradius 133.836
lwrist 11.6639
lhand -22.7308 8.97863
lfingers 7.12502
lthumb 3.70304 38.9262
rfemur -10.2443 -28.877 3.02165
rtibia 59.6761
rfoot -31.9649 -22.2633
rtoes -25.5408
lfemur -68.7966 -7.06003 -17.5933
ltibia 59.0315
lfoot -6.52768 -8.60595
ltoes 0.584519
788
root 0.288952 13.4584 0.875359 17.705 17.4608 3.38205
lowerback 11.4984 6.71245 5.4955
upperback -3.86291 9.71673 -1.70544
thorax -9.36481 4.31352 -6.67864
lowerneck -8.77063 -7.24685 2.73954
upperneck 21.5234 -10.8583 2.39267
head 8.10327 -4.61014 -0.673144
rclavicle 8.36883e-014 -2.06736e-014
rhumerus 52.8071 -2.38515 -80.8866
rradius 31.0916
rwrist -7.81768
rhand -19.4052 -22.4727
rfingers 7.12502
rthumb 6.91406 -52.3398
lclavicle 8.36883e-014 -2.06736e-014
lhumerus 23.9552 -44.801 78.7662
lradius 133.708
lwrist 11.3366
lhand -22.5724 9.18286
lfingers 7.12502
lthumb 3.85599 39.1277
rfemur -10.6459 -28.9587 2.9104
rtibia 60.3391
rfoot -31.7939 -22.0494
rtoes -25.2645
lfemur -68.914 -7.05344 -17.6735
ltibia 59.0923
lfoot -6.52666 -8.60481
ltoes 0.566911
789
root 0.290701 13.453 0.869868 17.7769 17.419 3.402
lowerback 11.6447 6.7423 5.37751
upperback -3.88158 9.74285 -1.75515
thorax -9.47691 4.32344 -6.69748
lowerneck -8.8897 -7.24546 2.86832
upperneck 21.4027 -10.926 2.61383
head 8.09228 -4.61315 -0.630972
rclavicle -2.70347e-014 9.54166e-015
rhumerus 52.9823 -3.46384 -82.1854
rradius 30.615
rwrist -6.02093
rhand -19.5591 -21.5226
rfingers 7.12502
rthumb 6.76542 -51.3945
lclavicle -2.70347e-014 9.54166e-015
lhumerus 24.3099 -44.7544 78.5091
lradius 133.618
lwrist 11.1081
lhand -22.4723 9.33466
lfingers 7.12502
lthumb 3.95274 39.2777
rfemur -11.041 -29.0277 2.82019
rtibia 60.8979
rfoot -31.6314 -21.7998
rtoes -25.0845
lfemur -69.0379 -7.02091 -17.7177
ltibia 59.1534
lfoot -6.54153 -8.56806
ltoes 0.52899
790
root 0.293625 13.4499 0.865596 17.8576 17.3281 3.38584
lowerback 11.6989 6.70839 5.16417
upperback -3.87018 9.66696 -1.7435
thorax -9.54228 4.29561 -6.56717
lowerneck -9.02024 -7.15666 3.0125
upperneck 21.2656 -10.8724 2.81593
head 8.07583 -4.56082 -0.586348
rclavicle 2.62396e-014 -7.95139e-015
rhumerus 52.4094 -3.42329 -82.0254
rradius 32.284
rwrist -6.74272
rhand -19.6933 -21.1147
rfingers 7.12502
rthumb 6.63591 -50.9907
lclavicle 2.62396e-014 -7.95139e-015
lhumerus 24.5728 -44.6503 78.3633
lradius 133.572
lwrist 10.9825
lhand -22.4354 9.39864
lfingers 7.12502
lthumb 3.98829 39.3411
rfemur -11.424 -29.0794 2.76303
rtibia 61.3513
rfoot -31.4784 -21.5227
rtoes -25.013
lfemur -69.1705 -6.96639 -17.7106
ltibia 59.2193
lfoot -6.57095 -8.49696
ltoes 0.472247
791
root 0.29798 13.4489 0.862062 17.9424 17.1775 3.33009
lowerback 11.6798 6.60968 4.86157
upperback -3.83991 9.49075 -1.67109
thorax -9.58127 4.22896 -6.29538
lowerneck -9.14972 -6.9761 3.1857
upperneck 21.1328 -10.6877 2.9682
head 8.05575 -4.44986 -0.550184
rclavicle -2.24627e-014 6.36111e-015
rhumerus 51.2629 -2.42918 -80.7894
rradius 35.686
rwrist -9.67563
rhand -19.6871 -21.1823
rfingers 7.12502
rthumb 6.6419 -51.0581
lclavicle -2.24627e-014 6.36111e-015
lhumerus 24.7159 -44.4858 78.3282
lradius 133.566
lwrist 10.9501
lhand -22.4695 9.35356
lfingers 7.12502
lthumb 3.9554 39.2966
rfemur -11.8022 -29.0992 2.7408
rtibia 61.706
rfoot -31.3275 -21.2181
rtoes -25.0276
lfemur -69.312 -6.88998 -17.6438
ltibia 59.2958
lfoot -6.61471 -8.38331
ltoes 0.406699
792
root 0.304257 13.4492 0.858711 18.0238 16.9569 3.22801
lowerback 11.5911 6.4495 4.48594
upperback -3.7803 9.22218 -1.53437
thorax -9.57829 4.12738 -5.88758
lowerneck -9.29635 -6.70735 3.38715
upperneck 21.0168 -10.3745 3.04847
head 8.03849 -4.2828 -0.530725
rclavicle -1.33385e-013 -1.59028e-014
rhumerus 49.8196 -0.836403 -79.1405
rradius 40.3802
rwrist -14.1312
rhand -19.6024 -21.5063
rfingers 7.12502
rthumb 6.7236 -51.3796
lclavicle -1.33385e-013 -1.59028e-014
lhumerus 24.7699 -44.231 78.3826
lradius 133.593
lwrist 11.0139
lhand -22.5541 9.20521
lfingers 7.12502
lthumb 3.87367 39.1498
rfemur -12.1791 -29.0777 2.75449
rtibia 61.9717
rfoot -31.1804 -20.8846
rtoes -25.1064
lfemur -69.4628 -6.79156 -17.5073
ltibia 59.3928
lfoot -6.67559 -8.21642
ltoes 0.324498
793
root 0.312878 13.4508 0.855295 18.0935 16.641 3.07937
lowerback 11.453 6.23955 4.05929
upperback -3.69192 8.88123 -1.34714
thorax -9.53393 3.99814 -5.37692
lowerneck -9.45281 -6.3564 3.62876
upperneck 20.9154 -9.93893 3.03862
head 8.0211 -4.06365 -0.535892
rclavicle -4.87022e-014 3.02153e-014
rhumerus 48.2492 1.04976 -77.5588
rradius 46.0099
rwrist -19.4734
rhand -19.6262 -21.8617
rfingers 7.12502
rthumb 6.70064 -51.7356
lclavicle -4.87022e-014 3.02153e-014
lhumerus 24.7607 -43.8784 78.4882
lradius 133.648
lwrist 11.1777
lhand -22.6703 8.97456
lfingers 7.12502
lthumb 3.76153 38.9211
rfemur -12.563 -28.9938 2.79571
rtibia 62.1613
rfoot -31.0382 -20.5224
rtoes -25.2604
lfemur -69.6137 -6.66037 -17.3017
ltibia 59.5196
lfoot -6.76321 -7.9802
ltoes 0.228037
794
root 0.324325 13.4532 0.851435 18.1481 16.2075 2.89098
lowerback 11.3358 5.99983 3.61873
upperback -3.60629 8.50215 -1.14471
thorax -9.50581 3.85031 -4.8395
lowerneck -9.61807 -5.94332 3.91777
upperneck 20.8586 -9.41313 2.94432
head 8.01481 -3.80488 -0.568619
rclavicle 1.52468e-013 -3.02153e-014
rhumerus 46.5815 2.98502 -76.3393
rradius 52.2812
rwrist -25.115
rhand -19.8821 -22.1133
rfingers 7.12502
rthumb 6.45364 -51.995
lclavicle 1.52468e-013 -3.02153e-014
lhumerus 24.6869 -43.4634 78.625
lradius 133.723
lwrist 11.4554
lhand -22.806 8.67306
lfingers 7.12502
lthumb 3.63048 38.6219
rfemur -12.9628 -28.8381 2.84726
rtibia 62.2882
rfoot -30.898 -20.1287
rtoes -25.4854
lfemur -69.7567 -6.49053 -17.0341
ltibia 59.6855
lfoot -6.88867 -7.65901
ltoes 0.117466
795
root 0.338878 13.4561 0.847046 18.1833 15.6373 2.65836
lowerback 11.2415 5.74788 3.18682
upperback -3.5166 8.11063 -0.936356
thorax -9.4791 3.69564 -4.30053
lowerneck -9.78566 -5.48026 4.24699
upperneck 20.8274 -8.81291 2.7734
head 8.01438 -3.5147 -0.626202
rclavicle 1.20662e-013 -1.43125e-014
rhumerus 44.8515 4.87969 -75.4812
rradius 58.9369
rwrist -30.6614
rhand -20.3389 -22.2437
rfingers 7.12502
rthumb 6.01266 -52.1383
lclavicle 1.20662e-013 -1.43125e-014
lhumerus 24.6002 -42.9979 78.7586
lradius 133.815
lwrist 11.8443
lhand -22.9436 8.38962
lfingers 7.12502
lthumb 3.49752 38.3407
rfemur -13.3898 -28.5954 2.9103
rtibia 62.3636
rfoot -30.7632 -19.7068
rtoes -25.7986
lfemur -69.8853 -6.26852 -16.7024
ltibia 59.8983
lfoot -7.06253 -7.24104
ltoes -0.0167418
